<mxfile host="app.diagrams.net" agent="Mozilla/5.0 (Windows NT 10.0; Win64; x64) AppleWebKit/537.36 (KHTML, like Gecko) Chrome/136.0.0.0 Safari/537.36" version="27.0.4">
  <diagram name="Página-1" id="NNWvZ4oggBIMChuUHBzH">
    <mxGraphModel dx="3565" dy="3563" grid="1" gridSize="10" guides="1" tooltips="1" connect="1" arrows="1" fold="1" page="1" pageScale="1" pageWidth="1200" pageHeight="1600" math="0" shadow="0">
      <root>
        <mxCell id="0" />
        <mxCell id="1" parent="0" />
        <mxCell id="VYU7v_phaBW_iBIL2m6B-1" value="Pool" style="swimlane;childLayout=stackLayout;resizeParent=1;resizeParentMax=0;startSize=60;html=1;" parent="1" vertex="1">
          <mxGeometry x="240" width="1140" height="1520" as="geometry" />
        </mxCell>
        <mxCell id="VYU7v_phaBW_iBIL2m6B-2" value="&lt;font style=&quot;font-size: 28px;&quot;&gt;Inicio&lt;/font&gt;" style="swimlane;startSize=80;html=1;" parent="VYU7v_phaBW_iBIL2m6B-1" vertex="1">
          <mxGeometry y="60" width="550" height="1460" as="geometry" />
        </mxCell>
        <mxCell id="IKzDBhC44jdNEWaVhKPq-8" value="Inicio" style="rounded=1;whiteSpace=wrap;html=1;" vertex="1" parent="VYU7v_phaBW_iBIL2m6B-2">
          <mxGeometry x="130" y="160" width="120" height="60" as="geometry" />
        </mxCell>
        <mxCell id="IKzDBhC44jdNEWaVhKPq-9" value="Servicio" style="rounded=1;whiteSpace=wrap;html=1;" vertex="1" parent="VYU7v_phaBW_iBIL2m6B-2">
          <mxGeometry x="130" y="400" width="120" height="60" as="geometry" />
        </mxCell>
        <mxCell id="IKzDBhC44jdNEWaVhKPq-10" value="Nosotros" style="rounded=1;whiteSpace=wrap;html=1;" vertex="1" parent="VYU7v_phaBW_iBIL2m6B-2">
          <mxGeometry x="130" y="850" width="120" height="60" as="geometry" />
        </mxCell>
        <mxCell id="IKzDBhC44jdNEWaVhKPq-11" value="Contacto" style="rounded=1;whiteSpace=wrap;html=1;" vertex="1" parent="VYU7v_phaBW_iBIL2m6B-2">
          <mxGeometry x="130" y="1060" width="120" height="60" as="geometry" />
        </mxCell>
        <mxCell id="IKzDBhC44jdNEWaVhKPq-12" value="Iniciar Sesion" style="rounded=1;whiteSpace=wrap;html=1;" vertex="1" parent="VYU7v_phaBW_iBIL2m6B-2">
          <mxGeometry x="310" y="610" width="120" height="60" as="geometry" />
        </mxCell>
        <mxCell id="IKzDBhC44jdNEWaVhKPq-19" value="Olvidar contraseña" style="text;html=1;align=center;verticalAlign=middle;resizable=0;points=[];autosize=1;strokeColor=none;fillColor=none;" vertex="1" parent="VYU7v_phaBW_iBIL2m6B-2">
          <mxGeometry x="370" y="710" width="120" height="30" as="geometry" />
        </mxCell>
        <mxCell id="IKzDBhC44jdNEWaVhKPq-18" value="Registrar" style="text;html=1;align=center;verticalAlign=middle;resizable=0;points=[];autosize=1;strokeColor=none;fillColor=none;" vertex="1" parent="VYU7v_phaBW_iBIL2m6B-2">
          <mxGeometry x="370" y="680" width="70" height="30" as="geometry" />
        </mxCell>
        <mxCell id="IKzDBhC44jdNEWaVhKPq-27" value="" style="strokeWidth=2;html=1;shape=mxgraph.flowchart.annotation_2;align=left;labelPosition=right;pointerEvents=1;" vertex="1" parent="VYU7v_phaBW_iBIL2m6B-2">
          <mxGeometry x="-10" y="180" width="100" height="920" as="geometry" />
        </mxCell>
        <mxCell id="IKzDBhC44jdNEWaVhKPq-29" value="" style="endArrow=none;html=1;rounded=0;" edge="1" parent="VYU7v_phaBW_iBIL2m6B-2">
          <mxGeometry width="50" height="50" relative="1" as="geometry">
            <mxPoint x="-20" y="1060" as="sourcePoint" />
            <mxPoint x="40" y="1060" as="targetPoint" />
          </mxGeometry>
        </mxCell>
        <mxCell id="IKzDBhC44jdNEWaVhKPq-30" value="" style="endArrow=none;html=1;rounded=0;" edge="1" parent="VYU7v_phaBW_iBIL2m6B-2">
          <mxGeometry width="50" height="50" relative="1" as="geometry">
            <mxPoint x="40" y="870" as="sourcePoint" />
            <mxPoint x="100" y="870" as="targetPoint" />
          </mxGeometry>
        </mxCell>
        <mxCell id="IKzDBhC44jdNEWaVhKPq-31" value="" style="endArrow=none;html=1;rounded=0;" edge="1" parent="VYU7v_phaBW_iBIL2m6B-2">
          <mxGeometry width="50" height="50" relative="1" as="geometry">
            <mxPoint x="30" y="639.1700000000001" as="sourcePoint" />
            <mxPoint x="290" y="639.47" as="targetPoint" />
          </mxGeometry>
        </mxCell>
        <mxCell id="IKzDBhC44jdNEWaVhKPq-32" value="" style="endArrow=none;html=1;rounded=0;" edge="1" parent="VYU7v_phaBW_iBIL2m6B-2">
          <mxGeometry width="50" height="50" relative="1" as="geometry">
            <mxPoint x="40" y="429.70000000000005" as="sourcePoint" />
            <mxPoint x="100" y="429.70000000000005" as="targetPoint" />
          </mxGeometry>
        </mxCell>
        <mxCell id="IKzDBhC44jdNEWaVhKPq-43" value="" style="endArrow=classic;html=1;rounded=0;entryX=0;entryY=0.25;entryDx=0;entryDy=0;" edge="1" parent="VYU7v_phaBW_iBIL2m6B-2" target="IKzDBhC44jdNEWaVhKPq-25">
          <mxGeometry width="50" height="50" relative="1" as="geometry">
            <mxPoint x="-10" y="580" as="sourcePoint" />
            <mxPoint x="40" y="530" as="targetPoint" />
          </mxGeometry>
        </mxCell>
        <mxCell id="IKzDBhC44jdNEWaVhKPq-45" value="" style="endArrow=classic;html=1;rounded=0;entryX=0;entryY=1;entryDx=0;entryDy=0;" edge="1" parent="VYU7v_phaBW_iBIL2m6B-2" target="IKzDBhC44jdNEWaVhKPq-33">
          <mxGeometry width="50" height="50" relative="1" as="geometry">
            <mxPoint x="-10" y="640" as="sourcePoint" />
            <mxPoint x="40" y="590" as="targetPoint" />
          </mxGeometry>
        </mxCell>
        <mxCell id="IKzDBhC44jdNEWaVhKPq-46" value="" style="endArrow=classic;html=1;rounded=0;entryX=0;entryY=0.25;entryDx=0;entryDy=0;" edge="1" parent="VYU7v_phaBW_iBIL2m6B-2" target="IKzDBhC44jdNEWaVhKPq-34">
          <mxGeometry width="50" height="50" relative="1" as="geometry">
            <mxPoint x="-10" y="640" as="sourcePoint" />
            <mxPoint x="40" y="590" as="targetPoint" />
          </mxGeometry>
        </mxCell>
        <mxCell id="IKzDBhC44jdNEWaVhKPq-48" value="" style="endArrow=classic;html=1;rounded=0;entryX=0;entryY=0.25;entryDx=0;entryDy=0;" edge="1" parent="VYU7v_phaBW_iBIL2m6B-2" target="IKzDBhC44jdNEWaVhKPq-35">
          <mxGeometry width="50" height="50" relative="1" as="geometry">
            <mxPoint x="-10" y="640" as="sourcePoint" />
            <mxPoint x="40" y="590" as="targetPoint" />
          </mxGeometry>
        </mxCell>
        <mxCell id="IKzDBhC44jdNEWaVhKPq-49" value="" style="endArrow=classic;html=1;rounded=0;entryX=0;entryY=0.5;entryDx=0;entryDy=0;" edge="1" parent="VYU7v_phaBW_iBIL2m6B-2" target="IKzDBhC44jdNEWaVhKPq-36">
          <mxGeometry width="50" height="50" relative="1" as="geometry">
            <mxPoint x="-10" y="640" as="sourcePoint" />
            <mxPoint x="40" y="590" as="targetPoint" />
            <Array as="points">
              <mxPoint y="1010" />
            </Array>
          </mxGeometry>
        </mxCell>
        <mxCell id="IKzDBhC44jdNEWaVhKPq-63" value="" style="endArrow=classic;html=1;rounded=0;entryX=0;entryY=0.5;entryDx=0;entryDy=0;" edge="1" parent="VYU7v_phaBW_iBIL2m6B-2" target="IKzDBhC44jdNEWaVhKPq-56">
          <mxGeometry width="50" height="50" relative="1" as="geometry">
            <mxPoint x="-10" y="640" as="sourcePoint" />
            <mxPoint x="200" y="500" as="targetPoint" />
            <Array as="points">
              <mxPoint x="90" y="540" />
            </Array>
          </mxGeometry>
        </mxCell>
        <mxCell id="VYU7v_phaBW_iBIL2m6B-4" value="&lt;font style=&quot;font-size: 28px;&quot;&gt;Mascotas&lt;/font&gt;" style="swimlane;startSize=80;html=1;" parent="VYU7v_phaBW_iBIL2m6B-1" vertex="1">
          <mxGeometry x="550" y="60" width="590" height="1460" as="geometry" />
        </mxCell>
        <mxCell id="IKzDBhC44jdNEWaVhKPq-25" value="Mascotas" style="rounded=1;whiteSpace=wrap;html=1;" vertex="1" parent="VYU7v_phaBW_iBIL2m6B-4">
          <mxGeometry x="160" y="560" width="120" height="60" as="geometry" />
        </mxCell>
        <mxCell id="IKzDBhC44jdNEWaVhKPq-26" value="Entramos a una sección del&amp;nbsp;&lt;div&gt;menú llamada mascotas&lt;/div&gt;" style="text;html=1;align=center;verticalAlign=middle;resizable=0;points=[];autosize=1;strokeColor=none;fillColor=none;" vertex="1" parent="VYU7v_phaBW_iBIL2m6B-4">
          <mxGeometry x="200" y="630" width="170" height="40" as="geometry" />
        </mxCell>
        <mxCell id="IKzDBhC44jdNEWaVhKPq-67" style="edgeStyle=orthogonalEdgeStyle;rounded=0;orthogonalLoop=1;jettySize=auto;html=1;entryX=0.5;entryY=0;entryDx=0;entryDy=0;" edge="1" parent="VYU7v_phaBW_iBIL2m6B-4" source="IKzDBhC44jdNEWaVhKPq-33" target="IKzDBhC44jdNEWaVhKPq-34">
          <mxGeometry relative="1" as="geometry">
            <mxPoint x="410" y="340" as="targetPoint" />
          </mxGeometry>
        </mxCell>
        <mxCell id="IKzDBhC44jdNEWaVhKPq-33" value="Agregar mascota" style="rounded=1;whiteSpace=wrap;html=1;" vertex="1" parent="VYU7v_phaBW_iBIL2m6B-4">
          <mxGeometry x="350" y="190" width="120" height="60" as="geometry" />
        </mxCell>
        <mxCell id="IKzDBhC44jdNEWaVhKPq-34" value="Actualizar mascota" style="rounded=1;whiteSpace=wrap;html=1;" vertex="1" parent="VYU7v_phaBW_iBIL2m6B-4">
          <mxGeometry x="350" y="430" width="120" height="60" as="geometry" />
        </mxCell>
        <mxCell id="IKzDBhC44jdNEWaVhKPq-35" value="Deshabilitar mascota" style="rounded=1;whiteSpace=wrap;html=1;" vertex="1" parent="VYU7v_phaBW_iBIL2m6B-4">
          <mxGeometry x="350" y="850" width="120" height="60" as="geometry" />
        </mxCell>
        <mxCell id="IKzDBhC44jdNEWaVhKPq-36" value="Historial medico" style="rounded=1;whiteSpace=wrap;html=1;" vertex="1" parent="VYU7v_phaBW_iBIL2m6B-4">
          <mxGeometry x="350" y="980" width="120" height="60" as="geometry" />
        </mxCell>
        <mxCell id="IKzDBhC44jdNEWaVhKPq-50" value="Agregar Historial medico" style="rounded=1;whiteSpace=wrap;html=1;" vertex="1" parent="VYU7v_phaBW_iBIL2m6B-4">
          <mxGeometry x="430" y="1080" width="120" height="60" as="geometry" />
        </mxCell>
        <mxCell id="IKzDBhC44jdNEWaVhKPq-51" value="Deshabilitar historial medico" style="rounded=1;whiteSpace=wrap;html=1;" vertex="1" parent="VYU7v_phaBW_iBIL2m6B-4">
          <mxGeometry x="430" y="1180" width="120" height="60" as="geometry" />
        </mxCell>
        <mxCell id="IKzDBhC44jdNEWaVhKPq-52" value="Actualizar Historial medico" style="rounded=1;whiteSpace=wrap;html=1;" vertex="1" parent="VYU7v_phaBW_iBIL2m6B-4">
          <mxGeometry x="430" y="1280" width="120" height="60" as="geometry" />
        </mxCell>
        <mxCell id="IKzDBhC44jdNEWaVhKPq-53" value="" style="endArrow=classic;html=1;rounded=0;entryX=0;entryY=0.5;entryDx=0;entryDy=0;" edge="1" parent="VYU7v_phaBW_iBIL2m6B-4" target="IKzDBhC44jdNEWaVhKPq-52">
          <mxGeometry width="50" height="50" relative="1" as="geometry">
            <mxPoint x="270" y="980" as="sourcePoint" />
            <mxPoint x="270" y="1310" as="targetPoint" />
            <Array as="points">
              <mxPoint x="270" y="1310" />
            </Array>
          </mxGeometry>
        </mxCell>
        <mxCell id="IKzDBhC44jdNEWaVhKPq-54" value="" style="endArrow=classic;html=1;rounded=0;entryX=0;entryY=0.5;entryDx=0;entryDy=0;" edge="1" parent="VYU7v_phaBW_iBIL2m6B-4" target="IKzDBhC44jdNEWaVhKPq-51">
          <mxGeometry width="50" height="50" relative="1" as="geometry">
            <mxPoint x="270" y="1210" as="sourcePoint" />
            <mxPoint x="320" y="1170" as="targetPoint" />
          </mxGeometry>
        </mxCell>
        <mxCell id="IKzDBhC44jdNEWaVhKPq-55" value="" style="endArrow=classic;html=1;rounded=0;entryX=0;entryY=0.5;entryDx=0;entryDy=0;" edge="1" parent="VYU7v_phaBW_iBIL2m6B-4" target="IKzDBhC44jdNEWaVhKPq-50">
          <mxGeometry width="50" height="50" relative="1" as="geometry">
            <mxPoint x="270" y="1110" as="sourcePoint" />
            <mxPoint x="320" y="1060" as="targetPoint" />
          </mxGeometry>
        </mxCell>
        <mxCell id="IKzDBhC44jdNEWaVhKPq-2" value="&lt;font style=&quot;font-size: 28px;&quot;&gt;Configuracion&lt;/font&gt;" style="swimlane;startSize=80;html=1;" vertex="1" parent="1">
          <mxGeometry x="2570" y="60" width="660" height="1460" as="geometry" />
        </mxCell>
        <mxCell id="IKzDBhC44jdNEWaVhKPq-3" value="&lt;font style=&quot;font-size: 28px;&quot;&gt;Servicios&lt;/font&gt;" style="swimlane;startSize=80;html=1;" vertex="1" parent="1">
          <mxGeometry x="1380" y="60" width="540" height="1460" as="geometry" />
        </mxCell>
        <mxCell id="IKzDBhC44jdNEWaVhKPq-56" value="Servicios" style="rounded=1;whiteSpace=wrap;html=1;" vertex="1" parent="IKzDBhC44jdNEWaVhKPq-3">
          <mxGeometry x="70" y="510" width="120" height="60" as="geometry" />
        </mxCell>
        <mxCell id="IKzDBhC44jdNEWaVhKPq-57" value="Agregar servicio" style="rounded=1;whiteSpace=wrap;html=1;" vertex="1" parent="IKzDBhC44jdNEWaVhKPq-3">
          <mxGeometry x="260" y="230" width="120" height="60" as="geometry" />
        </mxCell>
        <mxCell id="IKzDBhC44jdNEWaVhKPq-58" value="Actualizar servicio" style="rounded=1;whiteSpace=wrap;html=1;" vertex="1" parent="IKzDBhC44jdNEWaVhKPq-3">
          <mxGeometry x="260" y="400" width="120" height="60" as="geometry" />
        </mxCell>
        <mxCell id="IKzDBhC44jdNEWaVhKPq-59" value="Deshabilitar servicio" style="rounded=1;whiteSpace=wrap;html=1;" vertex="1" parent="IKzDBhC44jdNEWaVhKPq-3">
          <mxGeometry x="260" y="800" width="120" height="60" as="geometry" />
        </mxCell>
        <mxCell id="IKzDBhC44jdNEWaVhKPq-61" value="Entramos a una sección del&amp;nbsp;&lt;div&gt;menú llamada servicios&lt;/div&gt;" style="text;html=1;align=center;verticalAlign=middle;resizable=0;points=[];autosize=1;strokeColor=none;fillColor=none;" vertex="1" parent="IKzDBhC44jdNEWaVhKPq-3">
          <mxGeometry x="120" y="590" width="170" height="40" as="geometry" />
        </mxCell>
        <mxCell id="IKzDBhC44jdNEWaVhKPq-64" value="" style="endArrow=classic;html=1;rounded=0;entryX=0;entryY=0.5;entryDx=0;entryDy=0;" edge="1" parent="IKzDBhC44jdNEWaVhKPq-3" target="IKzDBhC44jdNEWaVhKPq-58">
          <mxGeometry width="50" height="50" relative="1" as="geometry">
            <mxPoint x="10" y="540" as="sourcePoint" />
            <mxPoint x="60" y="490" as="targetPoint" />
          </mxGeometry>
        </mxCell>
        <mxCell id="IKzDBhC44jdNEWaVhKPq-65" value="" style="endArrow=classic;html=1;rounded=0;entryX=0;entryY=0.5;entryDx=0;entryDy=0;" edge="1" parent="IKzDBhC44jdNEWaVhKPq-3" target="IKzDBhC44jdNEWaVhKPq-59">
          <mxGeometry width="50" height="50" relative="1" as="geometry">
            <mxPoint x="10" y="540" as="sourcePoint" />
            <mxPoint x="60" y="490" as="targetPoint" />
          </mxGeometry>
        </mxCell>
        <mxCell id="IKzDBhC44jdNEWaVhKPq-66" value="" style="endArrow=classic;html=1;rounded=0;entryX=0;entryY=0.5;entryDx=0;entryDy=0;" edge="1" parent="IKzDBhC44jdNEWaVhKPq-3" target="IKzDBhC44jdNEWaVhKPq-57">
          <mxGeometry width="50" height="50" relative="1" as="geometry">
            <mxPoint x="10" y="540" as="sourcePoint" />
            <mxPoint x="60" y="490" as="targetPoint" />
          </mxGeometry>
        </mxCell>
        <mxCell id="IKzDBhC44jdNEWaVhKPq-6" value="&lt;font style=&quot;font-size: 30px;&quot;&gt;&lt;b&gt;Flooky Pets&lt;/b&gt;&lt;/font&gt;" style="rounded=0;whiteSpace=wrap;html=1;" vertex="1" parent="1">
          <mxGeometry x="240" y="-60" width="2990" height="120" as="geometry" />
        </mxCell>
        <mxCell id="IKzDBhC44jdNEWaVhKPq-7" value="Admi" style="shape=umlActor;verticalLabelPosition=bottom;verticalAlign=top;html=1;outlineConnect=0;fontSize=28;fontStyle=1" vertex="1" parent="1">
          <mxGeometry x="60" y="200" width="160" height="230" as="geometry" />
        </mxCell>
        <mxCell id="IKzDBhC44jdNEWaVhKPq-23" value="Veterinario" style="shape=umlActor;verticalLabelPosition=bottom;verticalAlign=top;html=1;outlineConnect=0;fontSize=28;fontStyle=1" vertex="1" parent="1">
          <mxGeometry x="60" y="580" width="160" height="230" as="geometry" />
        </mxCell>
        <mxCell id="IKzDBhC44jdNEWaVhKPq-24" value="Propietario" style="shape=umlActor;verticalLabelPosition=bottom;verticalAlign=top;html=1;outlineConnect=0;fontSize=28;fontStyle=1" vertex="1" parent="1">
          <mxGeometry x="60" y="1020" width="160" height="230" as="geometry" />
        </mxCell>
        <mxCell id="IKzDBhC44jdNEWaVhKPq-4" value="&lt;font style=&quot;font-size: 28px;&quot;&gt;Citas&lt;/font&gt;" style="swimlane;startSize=80;html=1;" vertex="1" parent="1">
          <mxGeometry x="1920" y="60" width="650" height="1460" as="geometry" />
        </mxCell>
        <mxCell id="IKzDBhC44jdNEWaVhKPq-60" value="Agendar cita" style="rounded=1;whiteSpace=wrap;html=1;" vertex="1" parent="IKzDBhC44jdNEWaVhKPq-4">
          <mxGeometry x="100" y="560" width="120" height="60" as="geometry" />
        </mxCell>
        <mxCell id="IKzDBhC44jdNEWaVhKPq-28" value="" style="endArrow=none;html=1;rounded=0;" edge="1" parent="1" source="IKzDBhC44jdNEWaVhKPq-7">
          <mxGeometry width="50" height="50" relative="1" as="geometry">
            <mxPoint x="220" y="365" as="sourcePoint" />
            <mxPoint x="280" y="315" as="targetPoint" />
          </mxGeometry>
        </mxCell>
        <mxCell id="IKzDBhC44jdNEWaVhKPq-42" value="" style="endArrow=classic;html=1;rounded=0;entryX=0.25;entryY=1;entryDx=0;entryDy=0;" edge="1" parent="1" target="IKzDBhC44jdNEWaVhKPq-25">
          <mxGeometry width="50" height="50" relative="1" as="geometry">
            <mxPoint x="230" y="1200" as="sourcePoint" />
            <mxPoint x="260" y="1120" as="targetPoint" />
            <Array as="points">
              <mxPoint x="980" y="1200" />
            </Array>
          </mxGeometry>
        </mxCell>
        <mxCell id="IKzDBhC44jdNEWaVhKPq-62" value="" style="endArrow=classic;html=1;rounded=0;entryX=0;entryY=1;entryDx=0;entryDy=0;" edge="1" parent="1" target="IKzDBhC44jdNEWaVhKPq-56">
          <mxGeometry width="50" height="50" relative="1" as="geometry">
            <mxPoint x="220" y="1120" as="sourcePoint" />
            <mxPoint x="270" y="1070" as="targetPoint" />
            <Array as="points">
              <mxPoint x="1460" y="1110" />
            </Array>
          </mxGeometry>
        </mxCell>
      </root>
    </mxGraphModel>
  </diagram>
</mxfile>
